<mxfile host="65bd71144e">
    <diagram id="OgkLDyVy51c0Y1hwBo1d" name="Page-1">
        <mxGraphModel dx="1342" dy="777" grid="1" gridSize="10" guides="1" tooltips="1" connect="1" arrows="1" fold="1" page="1" pageScale="1" pageWidth="850" pageHeight="1100" background="#ffffff" math="0" shadow="0">
            <root>
                <mxCell id="0"/>
                <mxCell id="1" parent="0"/>
                <mxCell id="U8Xr-cFfi-HtL4nHrEtx-16" value="&lt;b&gt;&amp;nbsp;Environment&lt;/b&gt;" style="rounded=0;whiteSpace=wrap;html=1;align=left;verticalAlign=top;fillColor=#dae8fc;strokeColor=#6c8ebf;" parent="1" vertex="1">
                    <mxGeometry x="395" y="335" width="220" height="110" as="geometry"/>
                </mxCell>
                <mxCell id="U8Xr-cFfi-HtL4nHrEtx-15" value="&lt;b&gt;&amp;nbsp;Microservice&lt;/b&gt;" style="rounded=0;whiteSpace=wrap;html=1;align=left;verticalAlign=top;fillColor=#dae8fc;strokeColor=#6c8ebf;" parent="1" vertex="1">
                    <mxGeometry x="395" y="175" width="220" height="110" as="geometry"/>
                </mxCell>
                <mxCell id="U8Xr-cFfi-HtL4nHrEtx-14" value="&lt;b&gt;&amp;nbsp;Microservice&lt;/b&gt;" style="rounded=0;whiteSpace=wrap;html=1;align=left;verticalAlign=top;fillColor=#dae8fc;strokeColor=#6c8ebf;" parent="1" vertex="1">
                    <mxGeometry x="400" y="490" width="220" height="110" as="geometry"/>
                </mxCell>
                <mxCell id="U8Xr-cFfi-HtL4nHrEtx-13" value="&lt;b&gt;&amp;nbsp;Deployment Config&lt;/b&gt;" style="rounded=0;whiteSpace=wrap;html=1;align=left;verticalAlign=top;fillColor=#dae8fc;strokeColor=#6c8ebf;" parent="1" vertex="1">
                    <mxGeometry x="60" y="175" width="220" height="110" as="geometry"/>
                </mxCell>
                <mxCell id="U8Xr-cFfi-HtL4nHrEtx-12" value="&lt;b&gt;&amp;nbsp;Deployment Config&lt;/b&gt;" style="rounded=0;whiteSpace=wrap;html=1;align=left;verticalAlign=top;fillColor=#dae8fc;strokeColor=#6c8ebf;" parent="1" vertex="1">
                    <mxGeometry x="60" y="490" width="220" height="110" as="geometry"/>
                </mxCell>
                <mxCell id="U8Xr-cFfi-HtL4nHrEtx-8" style="edgeStyle=orthogonalEdgeStyle;rounded=0;orthogonalLoop=1;jettySize=auto;html=1;entryX=0;entryY=0.25;entryDx=0;entryDy=0;" parent="1" source="U8Xr-cFfi-HtL4nHrEtx-1" target="U8Xr-cFfi-HtL4nHrEtx-3" edge="1">
                    <mxGeometry relative="1" as="geometry"/>
                </mxCell>
                <mxCell id="U8Xr-cFfi-HtL4nHrEtx-9" style="edgeStyle=orthogonalEdgeStyle;rounded=0;orthogonalLoop=1;jettySize=auto;html=1;entryX=0;entryY=0.5;entryDx=0;entryDy=0;" parent="1" source="U8Xr-cFfi-HtL4nHrEtx-1" target="U8Xr-cFfi-HtL4nHrEtx-2" edge="1">
                    <mxGeometry relative="1" as="geometry"/>
                </mxCell>
                <mxCell id="U8Xr-cFfi-HtL4nHrEtx-1" value="Order-Service-Production" style="rounded=1;whiteSpace=wrap;html=1;" parent="1" vertex="1">
                    <mxGeometry x="70" y="210" width="200" height="60" as="geometry"/>
                </mxCell>
                <mxCell id="U8Xr-cFfi-HtL4nHrEtx-2" value="Order-Service" style="rounded=1;whiteSpace=wrap;html=1;" parent="1" vertex="1">
                    <mxGeometry x="420" y="210" width="170" height="60" as="geometry"/>
                </mxCell>
                <mxCell id="U8Xr-cFfi-HtL4nHrEtx-3" value="Production" style="rounded=1;whiteSpace=wrap;html=1;" parent="1" vertex="1">
                    <mxGeometry x="430" y="370" width="160" height="60" as="geometry"/>
                </mxCell>
                <mxCell id="U8Xr-cFfi-HtL4nHrEtx-4" value="Cart-Service" style="rounded=1;whiteSpace=wrap;html=1;" parent="1" vertex="1">
                    <mxGeometry x="430" y="530" width="160" height="60" as="geometry"/>
                </mxCell>
                <mxCell id="U8Xr-cFfi-HtL4nHrEtx-6" style="edgeStyle=orthogonalEdgeStyle;rounded=0;orthogonalLoop=1;jettySize=auto;html=1;entryX=0;entryY=0.5;entryDx=0;entryDy=0;" parent="1" source="U8Xr-cFfi-HtL4nHrEtx-5" target="U8Xr-cFfi-HtL4nHrEtx-4" edge="1">
                    <mxGeometry relative="1" as="geometry"/>
                </mxCell>
                <mxCell id="U8Xr-cFfi-HtL4nHrEtx-7" style="edgeStyle=orthogonalEdgeStyle;rounded=0;orthogonalLoop=1;jettySize=auto;html=1;entryX=0;entryY=0.75;entryDx=0;entryDy=0;" parent="1" source="U8Xr-cFfi-HtL4nHrEtx-5" target="U8Xr-cFfi-HtL4nHrEtx-3" edge="1">
                    <mxGeometry relative="1" as="geometry">
                        <mxPoint x="420" y="420" as="targetPoint"/>
                    </mxGeometry>
                </mxCell>
                <mxCell id="U8Xr-cFfi-HtL4nHrEtx-5" value="Cart-Service-Production" style="rounded=1;whiteSpace=wrap;html=1;" parent="1" vertex="1">
                    <mxGeometry x="70" y="530" width="200" height="60" as="geometry"/>
                </mxCell>
            </root>
        </mxGraphModel>
    </diagram>
</mxfile>